<?xml version="1.0" encoding="utf-8"?>
<!-- Generator: Adobe Illustrator 24.1.0, SVG Export Plug-In . SVG Version: 6.00 Build 0)  -->
<svg version="1.1" id="Ebene_1" xmlns="http://www.w3.org/2000/svg" xmlns:xlink="http://www.w3.org/1999/xlink" x="0px" y="0px"
	 viewBox="120 80 264 232" style="enable-background:new 120 80 264 232;" xml:space="preserve">
<style type="text/css">
	.st0{fill:#181715;}
	.st1{fill:#1E1E1E;}
	.st2{fill:#FF966E;}
	.st3{fill:none;stroke:#FF966E;stroke-width:10;stroke-linecap:round;stroke-linejoin:round;stroke-miterlimit:10;}
	.st4{fill:none;stroke:#181715;stroke-width:8;stroke-linecap:round;stroke-linejoin:round;stroke-miterlimit:10;}
	.st5{fill:none;}
	.st6{fill:none;stroke:#2D3CB9;stroke-width:10;stroke-linecap:round;stroke-linejoin:round;stroke-miterlimit:10;}
	.st7{fill:#FFFFFF;stroke:#2D3CB9;stroke-miterlimit:10;}
	.st8{fill:none;stroke:#2D3CB9;stroke-width:10;}
	.st9{fill:#FFFFFF;}
	.st10{fill:none;stroke:#FF966E;stroke-width:10;}
	.st11{fill:none;stroke:#1E1E1E;stroke-width:10;stroke-linecap:round;stroke-linejoin:round;stroke-miterlimit:10;}
	.st12{fill:#2D3CB9;}
	.st13{fill:none;stroke:#FF966E;stroke-width:10;stroke-linecap:round;stroke-linejoin:round;}
	.st14{fill:none;stroke:#2D3CB9;stroke-width:10;stroke-linecap:round;stroke-linejoin:round;}
	.st15{fill:#FFFFFF;stroke:#FF966E;stroke-width:10;}
	.st16{fill:#FFFFFF;stroke:#2D3CB9;stroke-width:10;}
	
		.st17{clip-path:url(#SVGID_2_);fill:none;stroke:#FF966E;stroke-width:10;stroke-linecap:round;stroke-linejoin:round;stroke-miterlimit:10;}
	.st18{fill:none;stroke:#2E3DBA;stroke-width:10;stroke-linecap:round;stroke-linejoin:round;stroke-miterlimit:10;}
</style>
<g>
	<path class="st8" d="M241.22,100.73c4.85-8.4,12.7-8.4,17.55,0l95.05,164.63c4.85,8.4,0.92,15.2-8.77,15.2h-190.1
		c-9.69,0-13.62-6.81-8.77-15.2L241.22,100.73z"/>
	<g>
		<path class="st12" d="M249.31,251.94c-2.3,0-4.07-0.64-5.31-1.93c-1.24-1.29-1.86-3.08-1.86-5.38v-2.48
			c0-2.39,0.62-4.21,1.86-5.45c1.24-1.24,3.01-1.86,5.31-1.86h1.38c2.39,0,4.18,0.62,5.38,1.86c1.19,1.24,1.79,3.06,1.79,5.45v2.48
			c0,2.3-0.6,4.09-1.79,5.38c-1.2,1.29-2.99,1.93-5.38,1.93H249.31z M250,222.56c-2.67,0-4.09-1.47-4.28-4.41l-3.17-54.21
			c-0.19-2.39,0.41-4.41,1.79-6.07c1.38-1.66,3.26-2.48,5.65-2.48c2.3,0,4.16,0.83,5.59,2.48c1.42,1.66,2,3.68,1.72,6.07
			l-3.04,54.21C254.09,221.09,252.67,222.56,250,222.56z"/>
	</g>
</g>
</svg>
