<?xml version="1.0" standalone="no"?>
<!DOCTYPE svg PUBLIC "-//W3C//DTD SVG 20010904//EN"
 "http://www.w3.org/TR/2001/REC-SVG-20010904/DTD/svg10.dtd">
<svg version="1.0" xmlns="http://www.w3.org/2000/svg"
 width="1472.000000pt" height="1472.000000pt" viewBox="0 0 1472.000000 1472.000000"
 preserveAspectRatio="xMidYMid meet">
<metadata>
Created by potrace 1.11, written by Peter Selinger 2001-2013
</metadata>
<g transform="translate(0.000000,1472.000000) scale(0.100000,-0.100000)"
fill="#000000" stroke="none">
<path d="M5918 11845 c-1 -1 -50 -6 -108 -9 -58 -3 -116 -8 -130 -11 -14 -3
-45 -8 -70 -11 -25 -3 -83 -14 -130 -26 -47 -11 -92 -21 -100 -23 -8 -2 -27
-8 -42 -14 -16 -6 -28 -9 -28 -6 0 2 -20 -4 -45 -15 -25 -11 -49 -20 -53 -21
-33 -7 -168 -67 -252 -112 -229 -123 -434 -295 -592 -496 -33 -42 -65 -83 -71
-91 -26 -33 -77 -117 -77 -128 0 -5 -4 -12 -9 -14 -11 -4 -104 -192 -121 -245
-7 -21 -16 -42 -20 -48 -11 -15 -73 -225 -71 -242 0 -2 -5 -17 -10 -35 -5 -18
-12 -53 -15 -78 -3 -25 -8 -63 -11 -85 -3 -22 -7 -53 -9 -70 -5 -41 -5 -303 0
-340 2 -16 7 -55 10 -85 3 -30 8 -66 11 -80 3 -14 8 -41 11 -60 3 -19 8 -38
10 -41 2 -3 6 -20 9 -37 23 -134 133 -394 232 -550 18 -29 33 -54 33 -57 0 -3
6 -13 14 -22 8 -10 35 -45 60 -79 25 -33 69 -87 100 -120 79 -86 2561 -2567
2613 -2613 56 -48 170 -106 245 -124 86 -21 253 -14 325 14 15 6 30 10 33 10
12 0 118 64 155 94 41 34 2594 2587 2640 2640 43 50 161 208 179 240 10 17 29
50 43 75 66 116 142 291 168 385 5 17 9 32 10 35 11 38 28 99 31 115 35 179
44 265 43 425 0 160 -3 220 -9 220 -3 0 -6 10 -6 23 -1 35 -19 162 -24 162 -1
0 -3 11 -5 25 -19 130 -136 424 -230 575 -14 22 -30 50 -37 63 -6 12 -15 22
-20 22 -4 0 -8 4 -8 10 0 11 -78 116 -130 175 -71 80 -217 220 -275 263 -6 4
-28 21 -50 37 -101 77 -370 226 -432 240 -10 2 -48 16 -85 29 -38 14 -68 23
-68 20 0 -4 -6 -2 -12 3 -7 6 -38 16 -68 22 -30 7 -62 15 -70 18 -8 3 -33 7
-55 9 -21 3 -41 8 -45 12 -3 4 -21 7 -40 8 -19 0 -71 4 -115 8 -135 11 -259 9
-400 -9 -22 -3 -60 -7 -85 -10 -90 -11 -308 -72 -397 -111 -17 -8 -34 -14 -38
-14 -14 0 -230 -112 -233 -121 -2 -5 -9 -9 -15 -9 -16 0 -153 -96 -242 -170
-44 -37 -381 -369 -750 -739 -368 -370 -775 -777 -904 -906 -129 -130 -236
-233 -238 -231 -8 7 -9 62 -2 94 4 17 4 32 0 32 -10 0 -8 31 3 48 4 6 3 12 -1
12 -5 0 -7 21 -6 48 6 99 6 150 -1 161 -4 6 -2 11 5 11 7 0 8 4 2 13 -5 6 -8
30 -6 52 1 22 3 61 5 88 2 26 0 47 -3 47 -8 0 -5 33 5 48 4 6 3 12 -2 12 -9 0
-7 61 3 88 2 6 1 12 -4 12 -9 0 -8 31 3 48 4 6 3 12 -1 12 -5 0 -7 21 -6 48 6
99 6 150 -1 161 -4 6 -2 11 4 11 6 0 8 5 4 12 -4 6 -9 26 -10 42 -3 50 -22 87
-61 123 -113 102 -293 48 -330 -100 -7 -28 -10 -1647 -3 -1647 3 0 6 -11 6
-25 3 -40 43 -93 92 -123 l47 -27 830 -1 c525 0 842 3 863 10 38 11 115 74
106 87 -3 5 -1 9 4 9 14 0 29 62 25 108 -6 76 -43 130 -115 168 -30 17 -80 18
-605 18 l-573 1 225 225 c123 124 536 538 917 920 382 382 706 706 722 719 55
45 193 141 204 141 6 0 12 4 14 8 2 7 122 67 203 103 27 11 145 50 168 54 9 2
21 6 25 9 4 2 27 7 52 11 25 4 47 8 51 11 17 10 141 18 284 18 168 0 214 -4
327 -30 39 -9 75 -17 82 -19 6 -1 18 -4 26 -7 8 -3 40 -13 70 -23 133 -44 304
-136 435 -235 117 -88 293 -277 351 -377 10 -18 22 -33 27 -33 4 0 6 -4 2 -9
-3 -5 -1 -13 5 -16 14 -8 120 -227 120 -247 0 -8 4 -18 8 -24 15 -17 57 -180
78 -304 15 -95 9 -408 -10 -490 -4 -14 -9 -38 -11 -55 -9 -51 -57 -209 -66
-219 -5 -6 -9 -16 -9 -23 0 -18 -42 -107 -52 -111 -4 -2 -8 -12 -8 -22 0 -9
-7 -23 -15 -30 -9 -7 -13 -15 -11 -18 9 -9 -121 -194 -194 -275 -70 -79 -2574
-2579 -2598 -2595 -14 -9 -32 -18 -41 -20 -40 -9 -121 -2 -150 13 -27 13
-2528 2505 -2628 2618 -18 20 -33 41 -33 47 0 5 -4 10 -9 10 -9 0 -111 143
-111 155 0 4 -9 20 -20 35 -27 37 -120 247 -120 269 0 10 -3 21 -7 25 -4 3 -8
12 -9 19 -8 39 -13 58 -18 66 -3 5 -8 24 -11 42 -2 19 -7 45 -10 59 -5 24 -12
77 -20 150 -6 45 -5 246 0 285 3 17 7 48 10 70 5 41 12 80 15 80 1 0 3 9 4 20
2 16 9 48 21 95 10 38 28 97 33 105 4 6 7 16 8 23 3 18 85 193 99 212 7 8 24
38 40 65 16 28 31 52 35 55 3 3 21 27 39 53 60 88 298 317 330 317 6 0 11 4
11 8 0 5 19 19 43 32 23 13 44 26 47 29 12 14 68 40 74 34 3 -3 6 -2 6 4 0 9
98 57 160 78 3 1 17 7 33 13 15 7 38 14 50 17 12 3 63 16 113 29 155 42 250
53 416 51 145 -2 199 -8 298 -31 36 -8 74 -16 85 -18 30 -6 138 -47 153 -59 6
-5 12 -7 12 -4 0 11 114 -55 220 -128 58 -39 116 -78 130 -85 60 -32 155 -20
210 26 30 26 66 82 62 97 -1 4 2 7 6 7 13 0 5 89 -12 133 -11 27 -33 55 -62
77 -25 19 -52 41 -59 48 -8 6 -18 12 -24 12 -6 0 -11 5 -11 10 0 6 -5 10 -10
10 -12 0 -73 41 -78 53 -2 4 -8 7 -14 7 -5 0 -22 9 -37 20 -73 52 -332 160
-383 160 -10 0 -18 4 -18 8 0 4 -9 8 -20 9 -12 1 -53 9 -93 17 -99 21 -135 26
-251 32 -56 3 -106 7 -113 9 -6 2 -13 2 -15 0z"/>
<path d="M493 4546 c-38 -25 -52 -66 -50 -146 1 -33 -2 -60 -6 -60 -5 0 -5 -4
-2 -10 9 -15 11 -141 2 -147 -4 -2 -5 -9 -2 -14 8 -13 9 -164 1 -177 -3 -6 -3
-13 2 -16 5 -3 7 -24 5 -48 -5 -57 -5 -57 0 -101 3 -20 2 -39 -2 -42 -6 -3 -7
-50 -1 -50 1 0 2 -80 3 -178 1 -97 -2 -177 -6 -177 -5 0 -5 -4 -2 -10 9 -15
11 -141 2 -147 -4 -2 -5 -9 -1 -14 3 -6 6 -83 6 -172 0 -118 4 -169 14 -189
40 -78 153 -85 204 -14 21 29 21 33 22 206 l2 155 30 30 c18 17 49 45 71 62
l39 33 51 -54 c330 -354 450 -476 466 -477 8 0 24 -2 37 -3 13 -2 25 1 28 6 3
4 9 6 13 3 5 -2 23 9 41 25 35 31 49 85 33 127 -7 18 -55 75 -183 213 -164
178 -214 232 -253 275 l-46 50 48 45 c77 73 235 215 348 314 62 55 68 128 14
180 -49 47 -116 41 -174 -16 -14 -13 -71 -66 -127 -118 -57 -52 -122 -113
-146 -135 -212 -201 -308 -285 -290 -257 4 7 2 12 -5 12 -7 0 -8 4 -2 13 5 7
8 214 8 482 -1 420 -3 473 -18 502 -33 62 -112 80 -174 39z"/>
<path d="M8029 4543 c-15 -13 -31 -36 -37 -51 -9 -29 -15 -1551 -5 -1610 5
-32 51 -91 73 -93 78 -10 122 7 148 56 12 24 16 65 17 191 l0 162 50 43 c27
24 58 52 68 62 21 21 -6 46 262 -238 286 -303 284 -301 365 -262 56 28 94 96
67 123 -4 4 -7 15 -7 24 0 9 -24 42 -53 73 -29 32 -52 57 -51 57 1 0 -12 15
-29 33 -18 17 -78 82 -133 142 -56 61 -127 137 -158 170 l-56 60 54 50 c59 55
197 180 230 208 161 139 186 175 161 233 -12 28 -55 83 -55 71 0 -4 -12 -2
-26 4 -34 12 -83 -3 -122 -39 -16 -15 -77 -72 -137 -127 -59 -55 -131 -122
-160 -150 -121 -114 -248 -230 -259 -237 -8 -5 -11 121 -11 475 1 336 -2 493
-10 517 -25 75 -126 103 -186 53z"/>
<path d="M11805 4480 c-4 -6 -11 -8 -16 -5 -13 9 -76 -24 -85 -43 -4 -9 -8
-47 -9 -84 -1 -61 1 -70 26 -94 21 -20 38 -26 84 -29 132 -7 163 26 156 167
-2 42 -39 76 -91 83 -24 4 -48 9 -52 11 -3 2 -9 0 -13 -6z"/>
<path d="M2237 4083 c-1 0 -27 -4 -57 -8 -136 -17 -276 -102 -365 -220 -43
-58 -104 -190 -110 -240 -1 -5 -5 -28 -10 -50 -4 -22 -9 -69 -9 -105 -1 -36
-5 -70 -9 -77 -4 -6 -3 -14 1 -17 5 -3 9 -20 10 -38 2 -35 7 -68 17 -98 3 -10
8 -28 10 -40 7 -36 67 -160 78 -160 6 0 8 -3 4 -6 -7 -8 15 -35 88 -109 55
-55 164 -122 209 -129 8 -1 18 -5 22 -8 3 -4 12 -4 20 -1 8 3 14 1 14 -4 0 -5
14 -8 30 -7 17 1 32 -1 34 -5 4 -6 28 -5 116 3 110 10 227 72 316 166 l24 25
0 -37 c0 -45 25 -100 52 -117 36 -23 95 -21 130 3 61 40 59 26 60 625 0 617 2
597 -73 630 -81 37 -157 -13 -167 -108 l-4 -46 -36 33 c-88 84 -220 138 -350
145 -24 1 -44 1 -45 0z m163 -235 c65 -15 149 -79 200 -153 52 -76 74 -158 74
-270 0 -55 -4 -113 -8 -130 -12 -52 -62 -150 -96 -189 -32 -36 -120 -103 -120
-91 0 3 -12 -2 -26 -11 -36 -24 -204 -24 -256 0 -21 9 -41 17 -45 18 -22 6
-113 93 -113 107 0 6 -4 11 -9 11 -8 0 -27 33 -52 95 -14 35 -15 37 -23 89 -3
21 -9 43 -13 49 -3 6 -1 7 5 3 9 -5 10 0 4 16 -30 87 31 268 118 357 81 82
158 112 270 106 41 -2 82 -6 90 -7z"/>
<path d="M3858 4079 c-15 -4 -29 -5 -31 -2 -3 2 -31 -3 -63 -13 -105 -30 -209
-111 -253 -197 -17 -33 -22 -30 -22 14 0 117 -38 169 -123 169 -49 0 -79 -16
-101 -53 -18 -29 -19 -64 -20 -557 0 -289 3 -543 8 -564 7 -37 47 -85 72 -87
65 -6 79 -3 109 17 19 13 38 36 44 52 6 17 10 165 10 356 1 349 3 374 35 451
25 59 29 64 84 121 68 70 152 96 234 73 24 -7 50 -14 57 -15 8 -1 16 -5 19 -7
2 -3 24 1 48 10 86 29 104 143 31 198 -38 29 -101 44 -138 34z"/>
<path d="M6937 4084 c-3 -3 -88 -17 -109 -18 -10 0 -18 -4 -18 -8 0 -4 -5 -8
-12 -8 -18 0 -117 -49 -146 -73 -61 -51 -111 -106 -146 -159 -38 -59 -91 -186
-81 -196 2 -3 1 -10 -4 -16 -11 -13 -23 -102 -23 -171 0 -94 11 -169 37 -255
1 -3 5 -18 10 -35 4 -16 11 -32 14 -35 3 -3 16 -25 29 -50 73 -147 262 -282
408 -292 19 -1 34 -5 34 -8 0 -13 160 4 190 20 8 4 19 8 23 8 16 -1 97 36 97
44 0 4 6 8 14 8 7 0 40 25 72 55 33 30 59 55 59 55 0 0 1 -20 2 -44 1 -49 33
-101 67 -113 31 -11 79 -10 94 0 6 5 12 6 12 1 0 -18 50 41 59 70 6 19 9 250
8 584 -2 479 -4 554 -17 562 -8 5 -11 10 -6 10 6 0 -6 12 -25 26 -75 56 -187
7 -190 -84 -1 -20 -1 -40 0 -44 2 -15 -11 -8 -47 27 -20 19 -53 43 -72 52 -19
10 -40 23 -47 30 -7 6 -27 15 -45 18 -18 4 -37 10 -43 13 -5 4 -17 8 -25 9
-67 11 -168 21 -173 17z m216 -252 c147 -65 238 -216 239 -397 0 -44 -3 -98
-7 -120 -25 -137 -121 -263 -233 -306 -79 -30 -204 -33 -264 -6 -72 32 -133
78 -165 126 -39 59 -66 111 -56 111 5 0 3 4 -3 8 -25 15 -39 211 -21 287 16
70 65 174 85 182 6 3 12 9 12 14 0 13 62 68 77 69 6 0 13 4 15 9 2 4 28 17 58
29 74 27 195 25 263 -6z"/>
<path d="M11258 4075 c-31 -7 -83 -25 -115 -41 -59 -30 -167 -129 -178 -164
-9 -29 -25 -24 -24 8 4 71 -2 99 -29 131 -52 62 -151 56 -192 -12 -14 -22 -18
-50 -17 -128 0 -54 -2 -102 -5 -105 -4 -3 -3 -18 2 -33 4 -16 4 -34 0 -42 -5
-7 -6 -17 -3 -22 3 -4 4 -50 4 -100 -1 -51 -2 -96 -2 -102 0 -5 0 -39 0 -75 1
-36 1 -74 1 -85 0 -11 0 -38 -1 -60 0 -22 0 -44 0 -50 4 -80 2 -255 -3 -264
-4 -6 -4 -11 1 -11 4 0 8 -16 9 -36 1 -75 105 -125 176 -85 58 33 61 52 63
431 1 190 5 354 8 365 19 74 64 151 118 206 9 9 42 29 74 44 47 22 67 26 106
22 27 -3 52 -8 57 -11 9 -6 62 -18 77 -17 41 0 84 27 96 59 23 59 18 98 -17
138 -36 39 -122 56 -206 39z"/>
<path d="M12756 4083 c-1 -1 -24 -5 -51 -9 -65 -8 -167 -47 -227 -85 -156
-100 -257 -266 -285 -464 -6 -44 -6 -195 0 -235 16 -102 57 -202 111 -273 20
-26 36 -52 36 -57 0 -6 4 -10 8 -10 5 0 28 -18 52 -40 38 -35 200 -128 200
-114 0 2 8 0 18 -5 23 -12 165 -33 227 -33 19 0 110 11 133 17 12 3 30 7 40 9
50 12 182 76 182 88 0 4 5 8 10 8 14 0 79 60 92 83 41 77 -20 163 -106 150
-17 -2 -49 -18 -71 -34 -47 -35 -139 -81 -175 -87 -65 -11 -213 -4 -255 12
-61 25 -75 32 -75 38 0 5 -6 8 -12 8 -24 1 -96 75 -128 132 -34 61 -62 150
-51 164 3 5 200 9 437 9 464 0 465 0 500 52 39 60 6 239 -67 369 -27 47 -101
141 -124 156 -5 3 -23 18 -40 32 -16 14 -36 26 -42 26 -7 0 -13 3 -13 8 0 13
-136 66 -195 76 -16 2 -30 5 -30 6 0 2 -96 5 -99 3z m142 -243 c28 -8 52 -17
52 -22 0 -4 7 -8 16 -8 34 0 138 -123 149 -176 2 -6 6 -26 10 -43 6 -30 5 -31
-27 -32 -39 -1 -650 0 -660 0 -16 2 18 95 55 151 48 73 124 122 212 137 17 3
31 6 33 8 7 7 112 -3 160 -15z"/>
<path d="M14258 4085 c-1 -2 -23 -6 -47 -10 -113 -17 -223 -88 -288 -186 -14
-21 -29 -39 -32 -39 -4 0 -6 24 -5 53 2 63 -26 121 -68 138 -35 14 -112 7
-131 -13 -43 -43 -43 -47 -41 -603 1 -291 2 -539 3 -551 1 -19 61 -97 61 -80
0 5 6 4 13 -1 10 -8 37 -10 83 -4 16 2 60 43 69 66 5 11 9 175 11 365 2 325 3
349 24 409 59 176 206 273 340 226 23 -8 46 -13 50 -10 5 3 11 1 14 -4 9 -14
72 9 95 33 11 12 22 33 25 48 2 15 7 32 10 37 4 5 2 12 -4 16 -5 3 -10 15 -10
25 0 27 -59 68 -106 75 -21 3 -44 8 -51 10 -6 2 -13 2 -15 0z"/>
<path d="M4857 4074 c-1 -1 -22 -5 -47 -9 -54 -8 -164 -58 -199 -91 -14 -13
-29 -24 -33 -24 -4 0 -23 -21 -43 -46 -19 -26 -35 -43 -35 -38 -4 77 -9 113
-20 131 -37 58 -129 71 -180 26 -17 -16 -34 -41 -38 -58 -6 -24 -9 -940 -3
-1082 1 -32 49 -92 75 -94 6 0 22 -3 36 -5 35 -7 77 14 103 50 22 31 22 36 23
381 1 193 5 367 8 389 18 112 107 207 220 235 57 14 159 13 196 -3 66 -27 118
-88 136 -161 5 -16 10 -205 13 -420 4 -214 10 -397 15 -405 18 -30 49 -59 57
-54 5 3 9 1 9 -4 0 -15 62 -12 98 5 63 30 65 37 67 443 1 201 5 374 8 385 19
72 89 154 162 192 62 31 173 42 242 22 69 -19 134 -88 149 -159 2 -8 6 -28 9
-45 4 -16 7 -196 8 -400 3 -411 2 -406 71 -439 57 -27 117 -10 152 41 18 26
19 52 18 423 0 217 -3 411 -7 430 -30 173 -78 263 -172 324 -82 54 -228 76
-329 50 -27 -7 -53 -11 -57 -8 -4 2 -9 1 -11 -3 -1 -5 -30 -21 -63 -37 -57
-28 -145 -106 -193 -170 -12 -16 -23 -27 -25 -25 -1 2 -13 27 -27 54 -53 107
-137 169 -257 191 -29 6 -132 11 -136 8z"/>
<path d="M11753 4040 c-21 -15 -42 -39 -48 -57 -6 -19 -10 -233 -9 -571 0
-509 1 -541 19 -568 25 -39 43 -51 84 -58 39 -6 88 12 116 44 19 22 20 36 20
585 0 615 1 601 -59 632 -46 24 -81 22 -123 -7z"/>
<path d="M9342 4025 c-20 -17 -34 -39 -38 -63 -6 -30 -9 -716 -4 -732 1 -3 3
-22 6 -43 11 -105 63 -215 139 -289 44 -44 156 -108 188 -108 9 0 19 -5 22
-10 4 -6 11 -8 16 -4 5 3 15 2 22 -3 7 -4 36 -8 65 -8 28 1 52 -3 52 -8 0 -4
4 -6 10 -2 5 3 39 8 77 10 37 3 85 10 108 16 22 6 41 11 43 10 1 -1 29 12 62
29 33 17 84 55 113 84 49 49 106 144 115 191 5 30 10 50 12 50 9 0 12 97 14
422 1 352 0 386 -17 421 -10 22 -29 44 -43 51 -34 15 -89 14 -123 -4 -53 -27
-55 -47 -56 -450 -1 -275 -5 -380 -14 -410 -18 -55 -62 -124 -83 -131 -10 -3
-18 -10 -18 -15 0 -6 -4 -7 -10 -4 -5 3 -10 2 -10 -3 0 -9 -19 -16 -75 -30
-42 -10 -195 -4 -195 8 0 3 -9 6 -20 7 -46 4 -117 77 -139 145 -19 58 -29 203
-16 217 3 2 0 10 -6 18 -9 10 -8 13 0 13 7 0 9 5 5 12 -6 10 -9 163 -3 195 1
4 1 13 0 18 -5 24 -3 246 2 251 2 3 1 22 -4 42 -4 20 -8 38 -9 40 0 1 0 9 0
16 0 8 -11 27 -25 42 -20 21 -37 28 -78 32 -46 4 -57 1 -85 -23z"/>
</g>
</svg>
